<svg width="15" height="14" viewBox="0 0 15 14" fill="none" xmlns="http://www.w3.org/2000/svg">
<g clip-path="url(#clip0_2636_2643)">
<path fill-rule="evenodd" clip-rule="evenodd" d="M0 7C0 6.75377 0.0987612 6.51763 0.274557 6.34352C0.450353 6.16941 0.688783 6.0716 0.937395 6.0716H11.7981L7.77288 2.08689C7.59686 1.91256 7.49798 1.67612 7.49798 1.42958C7.49798 1.18304 7.59686 0.946596 7.77288 0.772267C7.9489 0.597937 8.18763 0.5 8.43656 0.5C8.68548 0.5 8.92422 0.597937 9.10023 0.772267L14.7246 6.34269C14.8119 6.42893 14.8812 6.53138 14.9284 6.64417C14.9757 6.75697 15 6.87788 15 7C15 7.12212 14.9757 7.24303 14.9284 7.35583C14.8812 7.46862 14.8119 7.57107 14.7246 7.65731L9.10023 13.2277C8.92422 13.4021 8.68548 13.5 8.43656 13.5C8.18763 13.5 7.9489 13.4021 7.77288 13.2277C7.59686 13.0534 7.49798 12.817 7.49798 12.5704C7.49798 12.3239 7.59686 12.0874 7.77288 11.9131L11.7981 7.9284H0.937395C0.688783 7.9284 0.450353 7.83059 0.274557 7.65648C0.0987612 7.48237 0 7.24623 0 7Z" fill="white"/>
</g>
<defs>
<clipPath id="clip0_2636_2643">
<rect width="15" height="13" fill="white" transform="translate(0 0.5)"/>
</clipPath>
</defs>
</svg>
