<svg width="25" height="15" viewBox="0 0 25 15" fill="none" xmlns="http://www.w3.org/2000/svg">
<path fill-rule="evenodd" clip-rule="evenodd" d="M23.4727 1.76535C23.6395 1.24143 23.4727 0.856445 22.6787 0.856445H20.0531C19.3855 0.856445 19.0777 1.18901 18.9108 1.55574C18.9108 1.55574 17.5756 4.62066 15.6841 6.61153C15.0721 7.18783 14.7939 7.37119 14.4601 7.37119C14.2933 7.37119 14.0517 7.18782 14.0517 6.66394V1.76536C14.0517 1.13664 13.8579 0.856445 13.3015 0.856445H9.17557C8.75837 0.856445 8.50747 1.14824 8.50747 1.42479C8.50747 2.0208 9.45317 2.15824 9.55066 3.8348V7.47602C9.55066 8.27434 9.39756 8.41908 9.06376 8.41908C8.17367 8.41908 6.00851 5.34047 4.72437 1.81772C4.47271 1.13303 4.2203 0.856445 3.54926 0.856445H0.923654C0.17348 0.856445 0.0234375 1.18901 0.0234375 1.55574C0.0234375 2.21066 0.913577 5.45894 4.16808 9.75503C6.33773 12.6889 9.39462 14.2793 12.1763 14.2793C13.8452 14.2793 14.0517 13.9261 14.0517 13.3176V11.1002C14.0517 10.3937 14.2098 10.2528 14.7383 10.2528C15.1277 10.2528 15.7953 10.4361 17.3531 11.8507C19.1333 13.5272 19.4268 14.2793 20.4282 14.2793H23.0538C23.804 14.2793 24.1791 13.9261 23.9627 13.229C23.7259 12.5342 22.8759 11.5262 21.7481 10.3313C21.1361 9.65025 20.2182 8.9168 19.94 8.54999C19.5506 8.07852 19.6618 7.86891 19.94 7.44981C19.94 7.44981 23.1389 3.20609 23.4727 1.76535Z" fill="#96BB7C"/>
</svg>
